<svg xmlns="http://www.w3.org/2000/svg" width="1400" height="800" viewBox="0 0 1400 800">
  <defs>
    <linearGradient id="bg" x1="0" y1="0" x2="1" y2="1">
      <stop offset="0" stop-color="#070a12"/>
      <stop offset="0.55" stop-color="#0b1022"/>
      <stop offset="1" stop-color="#0f1a3a"/>
    </linearGradient>
    <linearGradient id="card" x1="0" y1="0" x2="0" y2="1">
      <stop offset="0" stop-color="rgba(14,22,45,0.90)"/>
      <stop offset="1" stop-color="rgba(12,18,38,0.70)"/>
    </linearGradient>
    <filter id="shadow" x="-20%" y="-20%" width="140%" height="140%">
      <feDropShadow dx="0" dy="12" stdDeviation="18" flood-color="rgba(0,0,0,0.45)"/>
    </filter>
    <linearGradient id="sevA" x1="0" y1="0" x2="1" y2="0">
      <stop offset="0" stop-color="rgba(255,77,125,0.95)"/>
      <stop offset="1" stop-color="rgba(255,204,61,0.85)"/>
    </linearGradient>
    <linearGradient id="sevB" x1="0" y1="0" x2="1" y2="0">
      <stop offset="0" stop-color="rgba(109,193,255,0.92)"/>
      <stop offset="1" stop-color="rgba(64,255,191,0.78)"/>
    </linearGradient>
  </defs>

  <rect width="1400" height="800" rx="26" fill="url(#bg)"/>

  <!-- top bar -->
  <rect x="28" y="26" width="1344" height="56" rx="18" fill="rgba(7,10,18,0.55)" stroke="rgba(132,164,255,0.14)"/>
  <text x="56" y="61" font-family="ui-sans-serif, system-ui, Segoe UI, Roboto, Arial" font-size="14" font-weight="900" letter-spacing="0.10em" fill="rgba(240,246,255,0.90)">CYBER DECEPTION HONEYPOT</text>
  <rect x="390" y="40" width="200" height="28" rx="999" fill="rgba(255,204,61,0.10)" stroke="rgba(255,204,61,0.22)"/>
  <text x="406" y="59" font-family="ui-sans-serif, system-ui" font-size="11" font-weight="900" letter-spacing="0.08em" fill="rgba(255,236,180,0.98)">CONTROLLED ENVIRONMENT</text>
  <rect x="1140" y="40" width="88" height="28" rx="999" fill="rgba(109,193,255,0.10)" stroke="rgba(109,193,255,0.22)"/>
  <text x="1172" y="59" font-family="ui-sans-serif, system-ui" font-size="12" font-weight="950" letter-spacing="0.08em" fill="rgba(210,240,255,0.95)">IST</text>
  <rect x="1240" y="40" width="112" height="28" rx="999" fill="rgba(12,18,38,0.28)" stroke="rgba(132,164,255,0.16)"/>
  <text x="1254" y="59" font-family="ui-sans-serif, system-ui" font-size="12" font-weight="900" fill="rgba(196,210,255,0.90)">Dashboard</text>

  <!-- sidebar -->
  <rect x="28" y="98" width="310" height="674" rx="18" fill="rgba(12,18,38,0.72)" stroke="rgba(132,164,255,0.14)" filter="url(#shadow)"/>
  <text x="52" y="132" font-family="ui-sans-serif, system-ui" font-size="12" font-weight="900" letter-spacing="0.12em" fill="rgba(240,246,255,0.85)">FILTERS</text>
  <!-- chips -->
  <g font-family="ui-sans-serif, system-ui" font-size="12" font-weight="800">
    <rect x="52" y="146" width="54" height="28" rx="999" fill="rgba(109,193,255,0.12)" stroke="rgba(109,193,255,0.22)"/>
    <text x="70" y="165" fill="rgba(240,246,255,0.92)">All</text>
    <rect x="112" y="146" width="76" height="28" rx="999" fill="rgba(14,22,45,0.16)" stroke="rgba(132,164,255,0.14)"/>
    <text x="126" y="165" fill="rgba(196,210,255,0.74)">Critical</text>
    <rect x="194" y="146" width="58" height="28" rx="999" fill="rgba(14,22,45,0.16)" stroke="rgba(132,164,255,0.14)"/>
    <text x="210" y="165" fill="rgba(196,210,255,0.74)">High</text>
  </g>
  <text x="52" y="220" font-family="ui-sans-serif, system-ui" font-size="12" font-weight="900" letter-spacing="0.12em" fill="rgba(240,246,255,0.85)">SYSTEM</text>
  <text x="52" y="250" font-family="ui-sans-serif, system-ui" font-size="12" font-weight="700" fill="rgba(196,210,255,0.72)">Status</text>
  <rect x="230" y="236" width="86" height="24" rx="999" fill="rgba(64,255,191,0.12)" stroke="rgba(64,255,191,0.25)"/>
  <text x="248" y="253" font-family="ui-sans-serif, system-ui" font-size="11" font-weight="900" letter-spacing="0.06em" fill="rgba(240,246,255,0.90)">HEALTHY</text>
  <text x="52" y="280" font-family="ui-sans-serif, system-ui" font-size="12" font-weight="700" fill="rgba(196,210,255,0.72)">Critical</text>
  <text x="286" y="280" text-anchor="end" font-family="ui-sans-serif, system-ui" font-size="12" font-weight="900" fill="rgba(240,246,255,0.90)">2</text>

  <!-- main header -->
  <rect x="354" y="98" width="1018" height="110" rx="18" fill="url(#card)" stroke="rgba(132,164,255,0.14)" filter="url(#shadow)"/>
  <text x="382" y="136" font-family="ui-sans-serif, system-ui" font-size="12" font-weight="900" letter-spacing="0.12em" fill="rgba(109,193,255,0.90)">LIVE CONSOLE</text>
  <text x="382" y="170" font-family="ui-sans-serif, system-ui" font-size="28" font-weight="950" fill="rgba(240,246,255,0.92)">Security Dashboard</text>
  <rect x="946" y="124" width="124" height="64" rx="16" fill="rgba(12,18,38,0.36)" stroke="rgba(132,164,255,0.14)"/>
  <text x="966" y="146" font-family="ui-sans-serif, system-ui" font-size="11" font-weight="800" letter-spacing="0.06em" fill="rgba(196,210,255,0.72)">EVENTS</text>
  <text x="966" y="176" font-family="ui-sans-serif, system-ui" font-size="24" font-weight="950" fill="rgba(240,246,255,0.92)">148</text>
  <rect x="1082" y="124" width="124" height="64" rx="16" fill="rgba(12,18,38,0.36)" stroke="rgba(132,164,255,0.14)"/>
  <text x="1102" y="146" font-family="ui-sans-serif, system-ui" font-size="11" font-weight="800" letter-spacing="0.06em" fill="rgba(196,210,255,0.72)">CRITICAL</text>
  <text x="1102" y="176" font-family="ui-sans-serif, system-ui" font-size="24" font-weight="950" fill="rgba(255,77,125,0.92)">8</text>
  <rect x="1218" y="124" width="124" height="64" rx="16" fill="rgba(12,18,38,0.36)" stroke="rgba(132,164,255,0.14)"/>
  <text x="1238" y="146" font-family="ui-sans-serif, system-ui" font-size="11" font-weight="800" letter-spacing="0.06em" fill="rgba(196,210,255,0.72)">LAST 24H</text>
  <text x="1238" y="176" font-family="ui-sans-serif, system-ui" font-size="24" font-weight="950" fill="rgba(240,246,255,0.92)">912</text>

  <!-- cards row -->
  <rect x="354" y="224" width="332" height="230" rx="18" fill="url(#card)" stroke="rgba(132,164,255,0.14)" filter="url(#shadow)"/>
  <text x="378" y="256" font-family="ui-sans-serif, system-ui" font-size="14" font-weight="950" fill="rgba(240,246,255,0.92)">Severity Mix</text>
  <text x="378" y="276" font-family="ui-sans-serif, system-ui" font-size="12" font-weight="700" fill="rgba(196,210,255,0.72)">Bar chart</text>
  <rect x="378" y="302" width="284" height="18" rx="9" fill="rgba(132,164,255,0.10)"/>
  <rect x="378" y="302" width="170" height="18" rx="9" fill="url(#sevA)"/>
  <rect x="378" y="332" width="284" height="18" rx="9" fill="rgba(132,164,255,0.10)"/>
  <rect x="378" y="332" width="210" height="18" rx="9" fill="url(#sevB)"/>
  <rect x="378" y="362" width="284" height="18" rx="9" fill="rgba(132,164,255,0.10)"/>
  <rect x="378" y="362" width="120" height="18" rx="9" fill="rgba(64,255,191,0.55)"/>

  <rect x="698" y="224" width="332" height="230" rx="18" fill="url(#card)" stroke="rgba(132,164,255,0.14)" filter="url(#shadow)"/>
  <text x="722" y="256" font-family="ui-sans-serif, system-ui" font-size="14" font-weight="950" fill="rgba(240,246,255,0.92)">Activity</text>
  <text x="722" y="276" font-family="ui-sans-serif, system-ui" font-size="12" font-weight="700" fill="rgba(196,210,255,0.72)">Line chart</text>
  <polyline points="722,404 748,380 774,388 800,350 826,365 852,330 878,340 904,315 930,325 956,292 982,308 1006,280"
            fill="none" stroke="rgba(109,193,255,0.92)" stroke-width="3"/>
  <polyline points="722,404 748,380 774,388 800,350 826,365 852,330 878,340 904,315 930,325 956,292 982,308 1006,280 1006,430 722,430"
            fill="rgba(109,193,255,0.14)" stroke="none"/>

  <rect x="1042" y="224" width="330" height="230" rx="18" fill="url(#card)" stroke="rgba(132,164,255,0.14)" filter="url(#shadow)"/>
  <text x="1066" y="256" font-family="ui-sans-serif, system-ui" font-size="14" font-weight="950" fill="rgba(240,246,255,0.92)">Top Actors</text>
  <text x="1066" y="276" font-family="ui-sans-serif, system-ui" font-size="12" font-weight="700" fill="rgba(196,210,255,0.72)">Bar chart</text>
  <rect x="1066" y="306" width="250" height="14" rx="7" fill="rgba(64,255,191,0.16)"/>
  <rect x="1066" y="306" width="180" height="14" rx="7" fill="rgba(64,255,191,0.70)"/>
  <rect x="1066" y="334" width="250" height="14" rx="7" fill="rgba(64,255,191,0.16)"/>
  <rect x="1066" y="334" width="210" height="14" rx="7" fill="rgba(64,255,191,0.62)"/>
  <rect x="1066" y="362" width="250" height="14" rx="7" fill="rgba(64,255,191,0.16)"/>
  <rect x="1066" y="362" width="140" height="14" rx="7" fill="rgba(64,255,191,0.58)"/>

  <!-- table -->
  <rect x="354" y="470" width="1018" height="302" rx="18" fill="url(#card)" stroke="rgba(132,164,255,0.14)" filter="url(#shadow)"/>
  <text x="378" y="504" font-family="ui-sans-serif, system-ui" font-size="14" font-weight="950" fill="rgba(240,246,255,0.92)">Event Stream</text>
  <text x="378" y="524" font-family="ui-sans-serif, system-ui" font-size="12" font-weight="700" fill="rgba(196,210,255,0.72)">Click a row for details</text>

  <!-- header row -->
  <rect x="378" y="540" width="974" height="34" rx="12" fill="rgba(12,18,38,0.44)" stroke="rgba(132,164,255,0.12)"/>
  <g font-family="ui-sans-serif, system-ui" font-size="11" font-weight="900" letter-spacing="0.08em" fill="rgba(196,210,255,0.82)">
    <text x="396" y="562">TIME</text>
    <text x="540" y="562">SEVERITY</text>
    <text x="660" y="562">SOURCE</text>
    <text x="760" y="562">TITLE</text>
    <text x="1120" y="562">IP</text>
  </g>

  <!-- rows -->
  <g font-family="ui-monospace, Menlo, Consolas, monospace" font-size="12" fill="rgba(240,246,255,0.80)">
    <text x="396" y="600">2026-03-12T..Z</text>
    <text x="540" y="600">HIGH</text>
    <text x="660" y="600">simulator</text>
    <text x="760" y="600">Credential stuffing pattern</text>
    <text x="1120" y="600">10.2.8.44</text>

    <text x="396" y="632">2026-03-12T..Z</text>
    <text x="540" y="632">LOW</text>
    <text x="660" y="632">simulator</text>
    <text x="760" y="632">API token misuse</text>
    <text x="1120" y="632">10.9.1.28</text>

    <text x="396" y="664">2026-03-12T..Z</text>
    <text x="540" y="664">CRITICAL</text>
    <text x="660" y="664">simulator</text>
    <text x="760" y="664">Privilege escalation probe</text>
    <text x="1120" y="664">10.4.22.88</text>
  </g>
</svg>
