<svg xmlns="http://www.w3.org/2000/svg" width="1200" height="700" viewBox="0 0 1200 700">
  <defs>
    <linearGradient id="g0" x1="0" y1="0" x2="1" y2="1">
      <stop offset="0" stop-color="#0b1022"/>
      <stop offset="0.55" stop-color="#070a12"/>
      <stop offset="1" stop-color="#0f1a3a"/>
    </linearGradient>
    <linearGradient id="g1" x1="0" y1="0" x2="0" y2="1">
      <stop offset="0" stop-color="rgba(109,193,255,0.9)"/>
      <stop offset="1" stop-color="rgba(64,255,191,0.6)"/>
    </linearGradient>
    <linearGradient id="g2" x1="0" y1="0" x2="1" y2="0">
      <stop offset="0" stop-color="rgba(255,77,125,0.95)"/>
      <stop offset="1" stop-color="rgba(255,204,61,0.85)"/>
    </linearGradient>
    <filter id="blur" x="-20%" y="-20%" width="140%" height="140%">
      <feGaussianBlur stdDeviation="18"/>
    </filter>
  </defs>

  <rect width="1200" height="700" rx="26" fill="url(#g0)"/>
  <rect x="24" y="24" width="1152" height="652" rx="22" fill="rgba(14,22,45,0.55)" stroke="rgba(132,164,255,0.18)"/>

  <g opacity="0.9">
    <circle cx="80" cy="70" r="7" fill="rgba(255,77,125,0.9)"/>
    <circle cx="106" cy="70" r="7" fill="rgba(255,204,61,0.9)"/>
    <circle cx="132" cy="70" r="7" fill="rgba(64,255,191,0.9)"/>
    <text x="170" y="75" font-family="ui-monospace, Menlo, Consolas, monospace" font-size="16" fill="rgba(240,246,255,0.85)">sentinel://snapshot</text>
  </g>

  <g filter="url(#blur)" opacity="0.7">
    <ellipse cx="320" cy="210" rx="210" ry="150" fill="rgba(109,193,255,0.25)"/>
    <ellipse cx="920" cy="240" rx="260" ry="180" fill="rgba(255,77,125,0.22)"/>
    <ellipse cx="720" cy="560" rx="260" ry="180" fill="rgba(64,255,191,0.18)"/>
  </g>

  <g opacity="0.9">
    <rect x="70" y="118" width="500" height="250" rx="18" fill="rgba(7,10,18,0.45)" stroke="rgba(132,164,255,0.16)"/>
    <text x="92" y="158" font-family="ui-monospace, Menlo, Consolas, monospace" font-size="18" fill="rgba(196,210,255,0.75)">$ tail -f logs.jsonl</text>
    <text x="92" y="194" font-family="ui-monospace, Menlo, Consolas, monospace" font-size="16" fill="rgba(240,246,255,0.88)">[CRITICAL] 2026-03-12T...</text>
    <text x="92" y="220" font-family="ui-monospace, Menlo, Consolas, monospace" font-size="16" fill="rgba(196,210,255,0.8)">source=honeypot ip=10.4.22.88</text>
    <text x="92" y="246" font-family="ui-monospace, Menlo, Consolas, monospace" font-size="16" fill="rgba(240,246,255,0.88)">[MEDIUM] 2026-03-12T...</text>
    <text x="92" y="272" font-family="ui-monospace, Menlo, Consolas, monospace" font-size="16" fill="rgba(196,210,255,0.8)">source=intake actor=operator</text>
    <text x="92" y="298" font-family="ui-monospace, Menlo, Consolas, monospace" font-size="16" fill="rgba(240,246,255,0.88)">[INFO] 2026-03-12T...</text>
    <text x="92" y="324" font-family="ui-monospace, Menlo, Consolas, monospace" font-size="16" fill="rgba(196,210,255,0.8)">source=web title=Dashboard login</text>
  </g>

  <g opacity="0.92">
    <rect x="620" y="118" width="510" height="250" rx="18" fill="rgba(7,10,18,0.45)" stroke="rgba(132,164,255,0.16)"/>
    <text x="642" y="156" font-family="ui-sans-serif, system-ui, Segoe UI, Roboto, Arial" font-weight="800" font-size="18" fill="rgba(240,246,255,0.9)">Severity Mix</text>
    <rect x="642" y="178" width="456" height="20" rx="10" fill="rgba(132,164,255,0.10)"/>
    <rect x="642" y="178" width="240" height="20" rx="10" fill="url(#g1)"/>
    <rect x="642" y="212" width="456" height="20" rx="10" fill="rgba(132,164,255,0.10)"/>
    <rect x="642" y="212" width="320" height="20" rx="10" fill="url(#g2)"/>
    <rect x="642" y="246" width="456" height="20" rx="10" fill="rgba(132,164,255,0.10)"/>
    <rect x="642" y="246" width="170" height="20" rx="10" fill="rgba(109,193,255,0.75)"/>
    <rect x="642" y="280" width="456" height="20" rx="10" fill="rgba(132,164,255,0.10)"/>
    <rect x="642" y="280" width="280" height="20" rx="10" fill="rgba(64,255,191,0.65)"/>
  </g>

  <g opacity="0.95">
    <rect x="70" y="400" width="1060" height="240" rx="18" fill="rgba(7,10,18,0.40)" stroke="rgba(132,164,255,0.16)"/>
    <text x="92" y="438" font-family="ui-sans-serif, system-ui, Segoe UI, Roboto, Arial" font-weight="900" font-size="18" fill="rgba(240,246,255,0.9)">Event Stream</text>
    <g font-family="ui-monospace, Menlo, Consolas, monospace" font-size="14" fill="rgba(196,210,255,0.72)">
      <text x="92" y="474">2026-03-12T..Z</text>
      <text x="260" y="474">CRITICAL</text>
      <text x="380" y="474">honeypot</text>
      <text x="510" y="474">Default Credential Attack</text>
      <text x="860" y="474">10.4.22.88</text>
      <text x="92" y="506">2026-03-12T..Z</text>
      <text x="260" y="506">MEDIUM</text>
      <text x="380" y="506">intake</text>
      <text x="510" y="506">Suspicious login detected</text>
      <text x="860" y="506">127.0.0.1</text>
      <text x="92" y="538">2026-03-12T..Z</text>
      <text x="260" y="538">INFO</text>
      <text x="380" y="538">web</text>
      <text x="510" y="538">Dashboard login</text>
      <text x="860" y="538">127.0.0.1</text>
    </g>
  </g>
</svg>

